<?xml version="1.0" standalone="no"?>
<!DOCTYPE svg PUBLIC "-//W3C//DTD SVG 20010904//EN"
 "http://www.w3.org/TR/2001/REC-SVG-20010904/DTD/svg10.dtd">
<svg version="1.0" xmlns="http://www.w3.org/2000/svg"
 width="260.000000pt" height="260.000000pt" viewBox="0 0 260.000000 260.000000"
 preserveAspectRatio="xMidYMid meet">
<metadata>
Created by potrace 1.14, written by Peter Selinger 2001-2017
</metadata>
<g transform="translate(0.000000,260.000000) scale(0.100000,-0.100000)"
fill="#000000" stroke="none">
<path d="M1224 2589 c-2 -4 7 -6 20 -3 14 2 27 0 31 -6 4 -6 -1 -7 -11 -3 -12
4 -15 3 -10 -5 5 -8 1 -10 -10 -5 -14 5 -16 3 -10 -13 6 -15 5 -17 -6 -6 -10
10 -15 8 -26 -10 -8 -13 -11 -15 -8 -5 3 9 1 17 -4 17 -6 0 -10 -5 -10 -10 0
-7 -8 -6 -22 1 -22 12 -22 11 -8 -6 14 -17 13 -18 -2 -12 -25 9 -44 -19 -27
-40 10 -11 10 -14 2 -9 -7 4 -13 2 -13 -3 0 -6 -4 -11 -10 -11 -5 0 -7 8 -4
18 5 14 4 14 -4 2 -8 -10 -7 -19 1 -29 9 -12 9 -13 0 -7 -7 4 -13 2 -13 -3 0
-6 -5 -11 -11 -11 -5 0 -7 5 -4 10 3 6 2 10 -3 10 -5 0 -12 -9 -15 -21 -3 -12
-10 -18 -16 -15 -6 4 -8 -2 -6 -14 2 -11 0 -22 -4 -25 -5 -2 -7 -16 -6 -30 3
-22 1 -24 -17 -14 -13 7 -18 7 -14 1 3 -6 2 -13 -4 -17 -6 -4 -8 -10 -5 -15 3
-5 -3 -17 -14 -27 -19 -18 -19 -19 -1 -19 10 0 17 4 14 7 -2 4 0 10 5 13 10 7
9 -20 -2 -30 -5 -5 6 -37 17 -50 1 0 -5 -8 -12 -16 -21 -26 -1 -55 33 -48 6 1
7 -2 3 -6 -4 -4 -3 -13 3 -21 6 -7 8 -13 4 -13 -5 0 0 -10 11 -22 15 -19 16
-20 2 -9 -11 8 -18 9 -18 3 0 -6 5 -14 10 -17 8 -5 8 -11 0 -20 -8 -10 -8 -15
1 -21 8 -5 10 -3 4 7 -4 8 4 1 18 -16 15 -18 24 -37 21 -47 -3 -10 0 -18 6
-18 6 0 9 -4 6 -8 -9 -15 25 -52 47 -51 21 1 20 2 -3 9 -22 7 -23 8 -4 9 34 2
49 -28 30 -58 -7 -10 -3 -12 15 -7 21 6 22 5 6 -4 -15 -10 -16 -14 -5 -28 8
-10 9 -13 1 -9 -6 4 -15 3 -18 -3 -5 -8 -11 -7 -21 1 -12 10 -13 9 -7 -6 5
-15 3 -17 -11 -12 -14 6 -17 3 -12 -10 5 -15 4 -15 -9 1 -14 18 -15 18 -15 2
0 -9 -4 -14 -10 -11 -5 3 -10 1 -10 -5 0 -6 -5 -8 -11 -4 -7 4 -6 -2 2 -17 12
-23 11 -23 -6 -9 -17 14 -18 13 -12 -3 4 -11 3 -16 -3 -12 -6 3 -10 -2 -10
-12 0 -14 -2 -15 -9 -4 -6 9 -11 10 -15 2 -4 -6 -11 -9 -15 -6 -5 2 -6 -7 -3
-22 3 -18 1 -24 -7 -19 -6 4 -8 12 -5 18 5 7 2 8 -5 4 -7 -5 -10 -11 -7 -14 3
-3 0 -12 -7 -20 -10 -13 -9 -14 1 -8 10 6 10 2 0 -19 -9 -19 -17 -25 -32 -21
-21 5 -21 5 -1 -11 20 -15 20 -15 -3 -10 -19 5 -21 3 -11 -9 10 -13 8 -14 -15
-10 -27 5 -27 4 -13 -17 12 -18 12 -26 2 -40 -6 -9 -15 -13 -19 -10 -4 4 -2
-5 3 -20 7 -18 7 -26 1 -22 -6 3 -10 1 -10 -5 0 -6 -5 -8 -12 -4 -9 5 -9 2 1
-9 15 -18 3 -23 -17 -7 -8 7 -9 7 -3 -1 5 -6 7 -19 3 -28 -4 -12 -2 -14 9 -6
11 7 11 6 -1 -5 -17 -16 -15 -54 2 -44 7 4 8 2 4 -4 -4 -6 -14 -9 -24 -6 -14
5 -14 3 2 -10 15 -12 17 -20 9 -38 -8 -18 -6 -26 11 -41 21 -18 21 -18 0 -8
-31 15 -47 0 -35 -32 7 -18 7 -28 -1 -33 -7 -5 -8 -3 -3 6 5 8 3 11 -6 8 -8
-3 -13 -11 -12 -17 2 -6 -3 -11 -10 -11 -8 0 -7 -4 3 -10 12 -8 10 -10 -10
-10 -19 0 -22 -2 -10 -9 8 -6 18 -7 24 -4 5 3 6 1 2 -6 -4 -6 -11 -9 -15 -7
-13 8 -8 -49 6 -62 16 -16 17 -29 3 -37 -5 -3 -7 0 -4 8 3 8 0 18 -7 23 -8 4
-10 3 -5 -5 4 -6 2 -19 -6 -28 -8 -10 -8 -14 -1 -10 6 4 14 3 18 -3 4 -6 10
-8 15 -5 5 3 12 0 16 -6 4 -7 3 -9 -4 -5 -6 3 -13 2 -17 -4 -3 -5 -12 -10 -18
-10 -7 0 -6 4 3 11 12 9 12 10 -3 5 -10 -3 -21 -6 -25 -6 -3 0 3 -7 14 -16 15
-12 15 -14 2 -11 -22 8 -29 -2 -17 -24 6 -13 6 -19 -1 -19 -5 0 -10 -5 -10
-11 0 -5 4 -7 10 -4 6 3 10 1 10 -4 0 -6 -8 -11 -17 -11 -15 0 -16 -2 -3 -10
11 -7 12 -10 2 -10 -16 0 -51 -39 -52 -57 0 -7 -4 -13 -10 -13 -5 0 -10 -5
-10 -11 0 -5 5 -7 12 -3 6 4 8 3 5 -3 -4 -6 -17 -9 -30 -8 -14 2 -24 -2 -23
-9 0 -6 -3 -12 -9 -14 -5 -2 -17 -10 -26 -18 -9 -8 -19 -11 -24 -7 -4 5 -5 3
-2 -3 9 -15 -20 -27 -29 -12 -5 7 -2 8 7 3 8 -5 10 -4 6 0 -20 23 -74 6 -61
-19 3 -6 -9 5 -26 24 -17 19 -29 29 -25 23 3 -7 1 -13 -4 -13 -6 0 -11 6 -11
14 0 7 -8 20 -17 27 -16 12 -17 12 -6 -1 10 -13 8 -16 -17 -15 -16 0 -32 4
-36 7 -4 4 3 6 15 3 22 -4 29 9 11 20 -5 3 -10 2 -10 -3 0 -13 -30 -11 -30 2
0 6 -5 3 -11 -6 -5 -10 -15 -18 -20 -18 -6 0 -7 5 -3 12 4 7 3 8 -4 4 -6 -4
-9 -13 -6 -21 4 -8 11 -12 17 -8 6 3 7 1 3 -6 -6 -9 -11 -9 -23 1 -14 11 -15
10 -8 -12 7 -24 7 -24 -8 -5 -14 19 -16 19 -22 3 -4 -10 -11 -18 -17 -18 -5 0
-7 4 -4 8 3 5 -1 9 -9 9 -8 0 -12 -4 -9 -9 5 -8 0 -10 -33 -11 -10 -1 -22 -6
-26 -12 -5 -6 -7 -4 -4 5 2 8 14 14 26 14 12 -1 19 1 16 4 -12 13 -55 9 -55
-5 0 -7 -5 -13 -10 -13 -12 0 -9 -22 5 -33 6 -5 1 -6 -10 -3 -27 7 -57 -17
-49 -38 5 -13 2 -15 -12 -9 -17 6 -17 5 -5 -10 15 -19 1 -23 -17 -5 -15 15
-14 17 -17 -60 -1 -34 3 -66 8 -69 6 -3 7 -1 3 5 -4 7 -1 12 9 12 11 0 15 -5
12 -15 -4 -8 -1 -17 5 -21 6 -4 8 -3 5 2 -3 5 3 10 13 10 17 0 18 -2 4 -17
-13 -15 -13 -17 1 -23 9 -3 21 -4 26 0 5 3 9 0 9 -5 0 -6 -7 -11 -17 -11 -14
0 -14 -2 2 -20 10 -11 23 -20 28 -20 6 0 2 7 -9 16 -18 14 -18 15 4 4 20 -10
21 -14 10 -28 -11 -14 -11 -15 6 -9 16 6 17 5 7 -7 -11 -13 -9 -15 8 -11 11 2
24 -1 27 -7 4 -6 2 -8 -4 -4 -6 4 -10 -1 -9 -13 1 -14 5 -17 13 -10 9 7 14 4
19 -11 4 -12 9 -19 12 -16 3 3 17 -3 31 -14 13 -11 29 -17 36 -13 6 4 5 -1 -3
-10 -12 -15 -12 -17 4 -11 14 6 16 4 10 -6 -6 -9 -4 -11 4 -6 7 5 10 14 8 20
-3 7 1 13 8 13 10 0 11 -5 4 -18 -13 -25 -11 -33 5 -20 12 10 13 8 9 -10 -4
-15 -3 -20 5 -15 7 4 13 2 13 -3 1 -6 3 -15 4 -21 1 -5 3 -16 4 -22 1 -10 4
-9 10 1 5 8 8 23 6 33 -2 10 0 16 6 13 5 -4 7 -10 4 -15 -3 -4 12 -7 33 -6 30
1 39 -3 47 -22 5 -12 13 -22 18 -22 4 0 6 4 3 8 -3 5 1 9 8 9 7 0 13 -6 14
-14 1 -7 3 -20 4 -28 1 -8 5 -12 10 -9 5 3 6 9 4 13 -3 4 0 13 6 21 8 12 9 12
4 -2 -3 -10 -1 -18 5 -18 6 0 8 -4 4 -9 -3 -5 0 -13 6 -17 7 -4 9 -3 5 4 -3 6
-2 13 3 17 5 3 15 -3 21 -12 11 -17 11 -17 6 0 -6 19 -6 18 42 21 18 1 36 -2
39 -7 2 -4 12 -2 21 5 12 10 12 7 -2 -14 -12 -18 -14 -28 -7 -28 7 0 10 -4 7
-8 -3 -5 110 -9 250 -10 150 0 255 3 255 9 1 5 2 13 3 18 0 5 5 13 10 18 5 5
6 3 2 -4 -10 -18 0 -16 24 5 20 17 60 26 60 13 0 -4 9 -7 20 -8 11 -1 18 2 16
6 -3 4 1 8 9 8 8 0 12 -3 10 -7 -2 -3 1 -12 7 -20 8 -13 9 -13 5 0 -2 8 -1 24
4 35 7 19 8 18 8 -4 1 -15 6 -21 15 -18 7 3 19 0 25 -6 9 -9 10 -8 5 7 -5 13
-4 17 4 12 7 -4 12 -15 12 -25 0 -10 6 -23 13 -28 17 -13 487 -15 487 -2 0 6
-6 7 -12 3 -8 -5 -8 -1 2 12 22 29 24 30 17 12 -4 -10 -2 -18 3 -18 6 0 10 7
10 16 0 8 5 12 11 8 7 -4 9 0 5 14 -4 11 -3 23 2 26 6 3 9 -2 8 -11 0 -10 5
-18 12 -18 7 0 16 -6 21 -13 7 -11 9 -10 14 3 4 9 3 13 -3 10 -6 -3 -10 -2
-10 3 0 5 8 12 18 14 15 4 18 0 16 -18 -1 -13 2 -22 7 -18 5 3 7 10 4 15 -4 5
-1 9 5 9 6 0 8 5 4 12 -4 7 -3 8 5 4 6 -4 9 -11 7 -15 -3 -4 8 -7 24 -7 17 0
28 2 25 4 -2 2 2 11 10 18 8 8 12 21 9 28 -7 18 12 30 22 15 4 -7 3 -9 -3 -6
-6 4 -10 -4 -10 -18 -1 -25 0 -25 25 7 13 18 22 26 19 18 -4 -12 3 -16 29 -16
18 0 31 2 29 4 -2 2 9 15 26 29 16 14 26 30 22 35 -3 7 -1 8 6 4 8 -5 9 -12 2
-20 -7 -8 -6 -17 1 -26 8 -12 9 -12 4 2 -3 10 -1 20 5 24 6 3 8 13 5 21 -5 11
1 14 22 12 15 -2 33 0 40 4 6 5 12 5 12 1 0 -3 7 -1 15 6 10 8 12 17 6 24 -6
8 -6 17 1 26 8 12 9 12 4 -2 -3 -10 -1 -18 4 -18 6 0 10 5 10 11 0 5 6 7 13 3
8 -6 8 -3 -1 9 -12 14 -11 16 7 12 18 -3 20 -1 11 15 -8 16 -7 18 9 15 15 -3
18 0 14 12 -5 12 -3 14 7 8 10 -6 12 -4 7 8 -3 9 -3 16 1 16 20 -3 32 3 32 16
0 8 8 15 17 15 15 0 14 2 -3 15 -14 11 -15 14 -3 9 19 -6 35 11 20 21 -19 11
0 35 24 31 22 -4 23 -2 22 54 -1 32 -5 62 -9 66 -5 4 -8 2 -8 -4 0 -18 -21
-14 -35 5 -9 13 -10 23 -3 37 7 13 7 16 -1 12 -6 -4 -11 -2 -11 3 0 6 -4 11
-9 11 -5 0 -7 -10 -5 -23 4 -20 4 -20 -5 -2 -5 12 -5 25 2 33 7 9 6 11 -6 7
-9 -4 -21 2 -30 15 -14 21 -16 21 -27 3 -10 -16 -10 -16 -5 5 4 13 2 22 -4 22
-6 0 -11 -7 -11 -15 0 -8 -5 -15 -11 -15 -5 0 -7 5 -4 10 3 6 2 10 -4 10 -5 0
-13 -5 -16 -10 -3 -6 -12 -10 -18 -10 -7 0 -6 4 3 10 12 7 12 12 3 21 -10 10
-14 9 -19 -4 -9 -23 -32 1 -27 28 4 16 3 17 -6 5 -9 -13 -12 -13 -23 -1 -10
10 -10 12 0 7 18 -10 15 -1 -5 15 -9 8 -14 9 -10 3 4 -7 0 -15 -9 -18 -8 -3
-12 -2 -9 4 3 6 2 10 -4 10 -5 0 -12 -6 -14 -12 -4 -10 -6 -10 -6 0 -1 6 -6
12 -12 12 -6 0 -8 -7 -5 -16 5 -14 4 -15 -8 -5 -10 8 -16 9 -21 1 -3 -6 -10
-8 -15 -5 -4 3 -6 -4 -3 -16 5 -19 4 -20 -15 -10 -17 9 -21 9 -16 -2 3 -8 -2
-20 -11 -27 -9 -7 -15 -9 -14 -4 5 27 -1 35 -16 20 -17 -17 -49 -11 -38 8 3 6
1 6 -8 -1 -14 -14 -33 -18 -25 -5 2 4 -5 9 -17 9 -17 2 -18 0 -7 -7 12 -7 10
-9 -6 -8 -20 2 -30 28 -11 28 6 0 7 3 4 6 -4 4 -13 1 -22 -6 -13 -11 -14 -10
-9 5 5 13 4 16 -5 10 -10 -6 -11 -3 -1 15 10 20 10 21 -6 12 -13 -7 -23 -4
-41 16 -30 33 -30 42 1 13 18 -17 26 -19 31 -10 5 7 4 10 -2 6 -13 -8 -46 27
-36 37 4 4 0 4 -9 1 -9 -4 -19 -1 -24 6 -4 7 -3 10 4 5 11 -7 11 12 -1 31 -5
7 -5 13 -1 13 4 0 -6 12 -22 27 -16 15 -21 24 -12 21 10 -4 19 -1 22 8 3 7 0
13 -7 11 -7 -1 -11 3 -10 9 1 6 -5 11 -12 11 -11 0 -12 -4 -4 -14 8 -9 8 -13
0 -13 -11 0 -15 13 -12 39 2 8 -2 10 -10 5 -8 -4 -10 -3 -5 4 4 6 14 9 24 6 9
-3 7 1 -6 8 l-23 14 23 12 c13 6 17 11 10 11 -9 1 -10 6 -2 20 10 20 -4 41
-17 27 -4 -3 -1 -6 6 -6 8 0 9 -5 2 -19 -6 -10 -7 -21 -4 -25 3 -3 2 -6 -3 -6
-6 0 -10 18 -10 39 1 22 4 37 7 35 4 -2 9 3 12 11 4 10 1 12 -11 8 -14 -5 -15
-3 -4 8 10 11 8 16 -10 27 -13 7 -15 11 -6 8 10 -3 20 0 24 6 4 6 3 8 -4 4 -6
-3 -13 -2 -17 3 -3 6 -13 8 -23 5 -14 -5 -14 -4 -3 4 8 6 20 8 28 5 7 -3 13 0
13 5 0 6 -9 9 -20 7 -11 -2 -23 1 -26 7 -4 7 -2 8 4 4 7 -4 12 -1 12 8 0 9 5
16 12 16 6 0 8 3 5 6 -4 4 -14 1 -24 -7 -15 -12 -16 -12 -10 4 4 10 7 21 7 23
0 3 5 2 12 -2 7 -5 8 -3 4 5 -5 7 0 18 10 27 18 13 18 14 -1 7 -18 -6 -19 -5
-5 13 14 18 14 18 -2 5 -10 -7 -16 -16 -14 -20 2 -3 -2 -15 -10 -26 -8 -10
-14 -14 -14 -8 0 7 4 14 9 17 5 4 8 14 7 24 -2 9 4 22 12 28 12 9 12 13 2 19
-9 6 -11 4 -5 -5 5 -9 4 -11 -4 -6 -9 6 -9 11 0 22 6 8 9 18 5 21 -4 4 -11 2
-15 -6 -6 -10 -10 -9 -14 4 -4 9 -3 14 1 11 4 -3 13 4 19 14 11 16 9 18 -17
16 -16 -1 -27 0 -25 3 3 2 -3 13 -12 24 -10 11 -12 17 -5 13 7 -4 12 -1 12 9
0 9 -4 14 -8 11 -5 -3 -9 2 -9 10 0 8 6 13 13 10 8 -3 11 0 7 10 -3 8 -11 13
-17 11 -8 -3 -11 5 -8 24 3 18 0 29 -7 29 -7 0 -9 -4 -6 -10 4 -6 -1 -7 -11
-3 -14 5 -13 8 7 24 27 21 19 25 -14 7 -20 -10 -21 -10 -8 6 12 14 12 16 -3
10 -11 -4 -16 -1 -16 11 0 9 5 13 10 10 6 -3 10 -1 10 4 0 11 -27 10 -46 -2
-7 -4 -11 0 -11 11 0 43 -3 51 -18 46 -11 -5 -13 -2 -9 10 8 21 -13 46 -38 46
-11 0 -34 15 -51 33 -19 20 -28 25 -24 13 6 -15 5 -17 -6 -8 -8 7 -16 10 -19
7 -3 -3 -11 2 -19 12 -9 11 -10 14 -1 9 7 -4 12 -1 12 8 0 10 -6 13 -17 9 -11
-5 -14 -3 -9 6 5 7 18 10 30 7 19 -5 20 -4 3 8 -16 13 -16 14 4 19 16 4 20 11
16 26 -3 12 -1 19 3 16 5 -3 10 -2 13 2 2 5 2 3 1 -4 -2 -7 2 -15 8 -19 6 -4
8 -3 4 4 -3 5 0 12 6 15 10 3 10 7 0 19 -11 14 -9 19 10 32 12 9 19 16 14 16
-5 0 -3 7 4 15 7 8 16 12 21 9 5 -3 12 8 15 25 4 17 12 31 18 31 6 0 4 4 -4 9
-8 6 -18 7 -24 4 -5 -4 -6 -1 -2 6 5 7 14 10 21 7 21 -7 35 14 25 39 -7 18 -5
22 8 21 9 0 17 4 17 11 0 6 3 14 7 18 4 4 4 14 1 23 -5 11 -3 13 7 7 8 -5 11
-4 6 3 -4 6 -14 8 -23 5 -10 -4 -14 -2 -10 4 4 6 1 14 -5 17 -7 3 -3 3 9 1 12
-3 24 -1 28 5 4 6 3 10 -2 9 -20 -3 -37 2 -28 9 6 4 17 16 25 27 l15 20 -24
-20 c-14 -11 -21 -14 -17 -7 4 7 2 12 -5 12 -7 0 -4 7 7 15 13 10 14 14 5 15
-11 0 -11 3 -1 16 8 8 9 14 4 13 -26 -5 -36 2 -31 22 4 17 3 19 -6 10 -6 -6
-16 -11 -21 -11 -6 0 -5 4 2 9 11 7 11 11 -2 24 -19 19 -20 27 -3 23 6 -1 9
-1 4 1 -4 3 -5 9 -1 14 3 5 2 9 -3 8 -28 -5 -42 2 -36 18 4 11 3 14 -5 9 -12
-7 -15 1 -15 36 0 9 -2 16 -6 15 -12 -4 -51 30 -43 38 4 5 1 5 -7 0 -12 -7
-11 -10 4 -22 11 -7 14 -13 8 -13 -7 0 -19 7 -28 16 -12 12 -13 19 -4 30 8 10
2 9 -21 -3 -30 -15 -33 -15 -42 1 -8 14 -12 15 -25 4 -15 -12 -15 -11 -3 8
l13 22 17 -21 c14 -16 17 -17 17 -4 0 9 -5 13 -10 10 -6 -4 -8 0 -5 8 4 10 -5
15 -34 16 -22 2 -36 -1 -33 -6 3 -6 1 -13 -5 -16 -6 -4 -9 -1 -8 7 3 14 -59
21 -68 7z m-92 -91 c-7 -7 -12 -8 -12 -2 0 14 12 26 19 19 2 -3 -1 -11 -7 -17z
m357 -2 c8 -10 9 -16 1 -21 -6 -4 -9 -1 -8 7 2 8 -5 12 -17 10 -16 -2 -17 -1
-5 7 19 13 15 14 29 -3z m-428 -85 c-7 -5 -11 -14 -7 -20 5 -7 1 -9 -9 -5 -12
5 -13 9 -4 20 6 8 17 14 23 14 6 0 5 -4 -3 -9z m-24 -46 c0 -8 -4 -12 -9 -9
-5 3 -6 10 -3 15 9 13 12 11 12 -6z m-40 -60 c0 -8 -4 -12 -9 -9 -5 3 -6 10
-3 15 9 13 12 11 12 -6z m628 -134 c3 -6 -5 -15 -17 -21 -21 -10 -21 -10 -6 3
10 8 15 17 11 20 -3 4 -4 7 0 7 3 0 8 -4 12 -9z m-25 -85 c0 -11 -19 -15 -25
-6 -3 5 1 10 9 10 9 0 16 -2 16 -4z m-477 -177 c5 -3 1 -9 -8 -12 -9 -4 -13
-3 -10 3 3 6 1 10 -5 10 -6 0 -8 5 -5 11 4 6 10 7 14 2 3 -4 10 -11 14 -14z
m452 -200 c11 -16 1 -19 -13 -3 -7 8 -8 14 -3 14 5 0 13 -5 16 -11z m-570 -49
c3 -5 1 -10 -4 -10 -6 0 -11 5 -11 10 0 6 2 10 4 10 3 0 8 -4 11 -10z m-172
-471 c5 -3 1 -9 -8 -12 -9 -4 -13 -3 -10 3 3 6 1 10 -5 10 -6 0 -8 5 -5 11 4
6 10 7 14 2 3 -4 10 -11 14 -14z m-49 -128 c3 -5 -1 -11 -9 -14 -9 -4 -12 -1
-8 9 6 16 10 17 17 5z m1096 -216 c7 -9 8 -15 2 -15 -5 0 -12 7 -16 15 -3 8
-4 15 -2 15 2 0 9 -7 16 -15z m-1158 -32 c-6 -2 -9 -10 -6 -15 4 -7 2 -8 -4
-4 -7 4 -12 2 -12 -3 0 -6 -5 -11 -12 -11 -6 0 -3 9 7 20 10 11 23 20 29 19 6
0 6 -3 -2 -6z m-82 -91 c0 -5 -7 -17 -15 -28 -14 -18 -14 -17 -4 9 12 27 19
34 19 19z m1573 -17 c-3 -9 -8 -14 -10 -11 -3 3 -2 9 2 15 9 16 15 13 8 -4z
m-1618 -24 c-3 -6 -11 -11 -17 -11 -6 0 -6 6 2 15 14 17 26 13 15 -4z m-155
-1 c0 -5 -5 -10 -11 -10 -5 0 -7 5 -4 10 3 6 8 10 11 10 2 0 4 -4 4 -10z m70
-10 c0 -5 -5 -10 -11 -10 -5 0 -7 5 -4 10 3 6 8 10 11 10 2 0 4 -4 4 -10z
m-425 -67 c-2 -10 -4 -19 -4 -21 -1 -2 -6 0 -11 3 -8 5 -7 11 1 21 15 18 18
18 14 -3z m2315 -388 c0 -12 -19 -12 -23 0 -4 9 -1 12 9 8 7 -3 14 -7 14 -8z
m-36 -17 c-3 -4 -11 -5 -19 -1 -21 7 -19 12 4 10 11 0 18 -5 15 -9z m-150 -76
c3 -5 -1 -9 -9 -9 -8 0 -15 4 -15 9 0 10 17 10 24 0z m-129 -41 c3 -5 2 -12
-3 -15 -5 -3 -9 1 -9 9 0 17 3 19 12 6z m-1520 -10 c-9 -8 -36 -10 -30 -2 2 4
11 8 20 8 8 0 13 -3 10 -6z m881 -48 c-10 -11 -19 -7 -22 10 -2 15 0 16 12 6
8 -6 12 -14 10 -16z"/>
<path d="M956 2242 c-2 -4 -1 -14 4 -22 5 -9 5 -19 -2 -27 -12 -15 -5 -28 11
-19 5 4 7 16 5 29 -3 12 -6 28 -6 35 -1 14 -5 15 -12 4z"/>
<path d="M955 2130 c-3 -5 -1 -10 4 -10 6 0 11 5 11 10 0 6 -2 10 -4 10 -3 0
-8 -4 -11 -10z"/>
<path d="M986 2105 c4 -8 12 -15 20 -15 20 0 17 7 -6 20 -16 9 -18 8 -14 -5z"/>
<path d="M1030 1980 c0 -5 6 -9 13 -7 6 1 11 -6 10 -17 -1 -13 2 -15 10 -7 7
7 6 15 -3 26 -14 17 -30 20 -30 5z"/>
<path d="M1539 1975 c-1 -3 -2 -9 -3 -15 0 -5 -10 -16 -21 -24 -18 -14 -18
-15 -2 -16 9 0 17 5 17 11 0 5 5 7 12 3 6 -4 8 -3 4 4 -3 6 1 15 10 20 15 8
15 10 0 15 -9 4 -17 4 -17 2z"/>
<path d="M1145 1859 c-4 -6 -5 -12 -2 -15 2 -3 7 2 10 11 7 17 1 20 -8 4z"/>
<path d="M1446 1793 c-6 -14 -5 -15 5 -6 7 7 10 15 7 18 -3 3 -9 -2 -12 -12z"/>
<path d="M1506 1766 c3 -9 10 -16 15 -16 5 0 11 0 14 0 8 0 6 15 -2 15 -5 0
-14 4 -20 8 -9 6 -11 3 -7 -7z"/>
<path d="M916 1601 c-4 -5 -2 -12 3 -15 5 -4 12 -2 15 3 4 5 2 12 -3 15 -5 4
-12 2 -15 -3z"/>
<path d="M851 1503 c-1 -17 16 -25 25 -12 4 7 3 9 -4 5 -5 -3 -13 0 -15 6 -4
9 -6 10 -6 1z"/>
<path d="M1735 1441 c-3 -5 -2 -12 3 -15 5 -3 9 1 9 9 0 17 -3 19 -12 6z"/>
<path d="M1875 901 c-3 -5 -2 -12 3 -15 5 -3 9 1 9 9 0 17 -3 19 -12 6z"/>
<path d="M2355 709 c-4 -6 -5 -12 -2 -15 2 -3 7 2 10 11 7 17 1 20 -8 4z"/>
<path d="M2093 685 c0 -8 4 -12 9 -9 5 3 6 10 3 15 -9 13 -12 11 -12 -6z"/>
<path d="M2480 671 c0 -6 4 -13 10 -16 6 -3 7 1 4 9 -7 18 -14 21 -14 7z"/>
<path d="M2540 586 c0 -2 6 -9 13 -15 10 -8 14 -7 14 4 0 8 -6 15 -14 15 -7 0
-13 -2 -13 -4z"/>
<path d="M2576 422 c-3 -5 1 -9 9 -9 8 0 12 4 9 9 -3 4 -7 8 -9 8 -2 0 -6 -4
-9 -8z"/>
<path d="M216 208 c10 -14 21 -24 23 -22 3 3 -6 15 -18 27 l-24 22 19 -27z"/>
<path d="M2260 120 c-6 -11 -8 -20 -6 -20 3 0 10 9 16 20 6 11 8 20 6 20 -3 0
-10 -9 -16 -20z"/>
<path d="M373 107 c-3 -6 -1 -7 5 -3 6 3 14 2 17 -4 5 -8 11 -8 20 0 9 8 15 8
18 0 3 -6 4 -5 3 2 -3 15 -54 19 -63 5z"/>
<path d="M600 56 c0 -2 8 -10 18 -17 15 -13 16 -12 3 4 -13 16 -21 21 -21 13z"/>
<path d="M1235 49 c-4 -6 -4 -13 -1 -16 3 -4 6 -1 6 6 0 7 5 9 12 5 7 -4 8 -3
4 4 -9 15 -13 15 -21 1z"/>
</g>
</svg>
